<mxfile host="65bd71144e">
    <diagram id="OegJ9Nn6N-6bbSoRedIr" name="ページ1">
        <mxGraphModel dx="1320" dy="511" grid="1" gridSize="10" guides="1" tooltips="1" connect="1" arrows="1" fold="1" page="1" pageScale="1" pageWidth="827" pageHeight="1169" math="1" shadow="0">
            <root>
                <mxCell id="0"/>
                <mxCell id="1" parent="0"/>
                <mxCell id="207" value="基準容量`10MV\cdot A` の&lt;br&gt;%Zは`6%`" style="text;html=1;align=center;verticalAlign=middle;resizable=0;points=[];autosize=1;strokeColor=none;fillColor=none;" parent="1" vertex="1">
                    <mxGeometry x="4.5" y="210" width="160" height="40" as="geometry"/>
                </mxCell>
                <mxCell id="226" value="" style="endArrow=none;html=1;strokeWidth=1;startArrow=none;" parent="1" source="230" edge="1">
                    <mxGeometry width="100" relative="1" as="geometry">
                        <mxPoint x="320" y="160.5" as="sourcePoint"/>
                        <mxPoint x="40" y="161" as="targetPoint"/>
                    </mxGeometry>
                </mxCell>
                <mxCell id="232" value="" style="ellipse;whiteSpace=wrap;html=1;aspect=fixed;fillColor=#2c2626;" parent="1" vertex="1">
                    <mxGeometry x="274" y="156" width="10" height="10" as="geometry"/>
                </mxCell>
                <mxCell id="242" value="" style="endArrow=none;html=1;strokeWidth=1;" parent="1" edge="1">
                    <mxGeometry width="100" relative="1" as="geometry">
                        <mxPoint x="320" y="160.5" as="sourcePoint"/>
                        <mxPoint x="320" y="160.5" as="targetPoint"/>
                    </mxGeometry>
                </mxCell>
                <mxCell id="245" value="" style="endArrow=none;html=1;strokeWidth=1;" parent="1" edge="1">
                    <mxGeometry width="100" relative="1" as="geometry">
                        <mxPoint x="320" y="320" as="sourcePoint"/>
                        <mxPoint x="320" y="320" as="targetPoint"/>
                    </mxGeometry>
                </mxCell>
                <mxCell id="255" value="電源" style="text;html=1;align=center;verticalAlign=middle;resizable=0;points=[];autosize=1;strokeColor=none;fillColor=none;" parent="1" vertex="1">
                    <mxGeometry x="-10" y="146" width="50" height="30" as="geometry"/>
                </mxCell>
                <mxCell id="264" value="" style="ellipse;whiteSpace=wrap;html=1;aspect=fixed;fillColor=#2c2626;" parent="1" vertex="1">
                    <mxGeometry x="154.5" y="156" width="10" height="10" as="geometry"/>
                </mxCell>
                <mxCell id="266" value="" style="endArrow=none;html=1;strokeWidth=1;startArrow=none;" parent="1" source="232" target="230" edge="1">
                    <mxGeometry width="100" relative="1" as="geometry">
                        <mxPoint x="274" y="161" as="sourcePoint"/>
                        <mxPoint x="125" y="161" as="targetPoint"/>
                    </mxGeometry>
                </mxCell>
                <mxCell id="230" value="" style="ellipse;whiteSpace=wrap;html=1;aspect=fixed;fillColor=#2c2626;" parent="1" vertex="1">
                    <mxGeometry x="216.5" y="156" width="10" height="10" as="geometry"/>
                </mxCell>
                <mxCell id="270" value="" style="pointerEvents=1;verticalLabelPosition=bottom;shadow=0;dashed=0;align=center;html=1;verticalAlign=top;shape=mxgraph.electrical.capacitors.capacitor_1;rotation=90;" parent="1" vertex="1">
                    <mxGeometry x="183.5" y="258" width="78" height="30" as="geometry"/>
                </mxCell>
                <mxCell id="274" value="コンデンサ" style="text;html=1;align=center;verticalAlign=middle;resizable=0;points=[];autosize=1;strokeColor=none;fillColor=none;" parent="1" vertex="1">
                    <mxGeometry x="181.5" y="316" width="80" height="30" as="geometry"/>
                </mxCell>
                <mxCell id="275" value="`Y`" style="text;html=1;align=center;verticalAlign=middle;resizable=0;points=[];autosize=1;strokeColor=none;fillColor=none;" parent="1" vertex="1">
                    <mxGeometry x="234" y="225" width="40" height="30" as="geometry"/>
                </mxCell>
                <mxCell id="277" value="&lt;font color=&quot;#ff1010&quot;&gt;需要家&lt;/font&gt;" style="text;html=1;strokeColor=none;fillColor=none;align=center;verticalAlign=middle;whiteSpace=wrap;rounded=0;dashed=1;" parent="1" vertex="1">
                    <mxGeometry x="193" y="110" width="60" height="30" as="geometry"/>
                </mxCell>
                <mxCell id="278" value="" style="endArrow=classic;html=1;exitX=0.5;exitY=1;exitDx=0;exitDy=0;" edge="1" parent="1" source="232">
                    <mxGeometry width="50" height="50" relative="1" as="geometry">
                        <mxPoint x="50" y="400" as="sourcePoint"/>
                        <mxPoint x="280" y="280" as="targetPoint"/>
                    </mxGeometry>
                </mxCell>
                <mxCell id="279" value="" style="shape=mxgraph.electrical.electro-mechanical.switchDisconnector;aspect=fixed;elSwitchState=off;rotation=-90;" vertex="1" parent="1">
                    <mxGeometry x="178" y="190" width="75" height="20" as="geometry"/>
                </mxCell>
                <mxCell id="280" value="" style="shape=curlyBracket;whiteSpace=wrap;html=1;rounded=1;flipH=1;labelPosition=right;verticalLabelPosition=middle;align=left;verticalAlign=middle;rotation=90;" vertex="1" parent="1">
                    <mxGeometry x="90" y="130" width="20" height="120" as="geometry"/>
                </mxCell>
                <mxCell id="281" value="受電端" style="text;html=1;align=center;verticalAlign=middle;resizable=0;points=[];autosize=1;strokeColor=none;fillColor=none;" vertex="1" parent="1">
                    <mxGeometry x="129.5" y="126" width="60" height="30" as="geometry"/>
                </mxCell>
                <mxCell id="283" value="" style="rounded=1;whiteSpace=wrap;html=1;fillColor=none;dashed=1;strokeColor=#FF0000;" vertex="1" parent="1">
                    <mxGeometry x="160" y="116" width="160" height="244" as="geometry"/>
                </mxCell>
                <mxCell id="284" value="負荷`40MW`&amp;nbsp;&lt;br&gt;(遅れ力率0.87)" style="text;html=1;align=center;verticalAlign=middle;resizable=0;points=[];autosize=1;strokeColor=none;fillColor=none;" vertex="1" parent="1">
                    <mxGeometry x="226.5" y="280" width="100" height="40" as="geometry"/>
                </mxCell>
            </root>
        </mxGraphModel>
    </diagram>
</mxfile>